<svg width="1000" height="180" viewBox="0 0 1000 180" xmlns="http://www.w3.org/2000/svg">
<defs><clipPath id="clipB2"><rect width="1000" height="180" rx="14"/></clipPath></defs>
<g clip-path="url(#clipB2)">
<rect x="0" y="0" width="1000" height="16" fill="#fcfaf6"/><clipPath id="sc-0"><rect x="0" y="0" width="1000" height="16"/></clipPath><polygon points="-104,16 -88,0 -66,0 -82,16" fill="#d2001e" clip-path="url(#sc-0)"/><polygon points="-60,16 -44,0 -22,0 -38,16" fill="#d2001e" clip-path="url(#sc-0)"/><polygon points="-16,16 0,0 22,0 6,16" fill="#d2001e" clip-path="url(#sc-0)"/><polygon points="28,16 44,0 66,0 50,16" fill="#d2001e" clip-path="url(#sc-0)"/><polygon points="72,16 88,0 110,0 94,16" fill="#d2001e" clip-path="url(#sc-0)"/><polygon points="116,16 132,0 154,0 138,16" fill="#d2001e" clip-path="url(#sc-0)"/><polygon points="160,16 176,0 198,0 182,16" fill="#d2001e" clip-path="url(#sc-0)"/><polygon points="204,16 220,0 242,0 226,16" fill="#d2001e" clip-path="url(#sc-0)"/><polygon points="248,16 264,0 286,0 270,16" fill="#d2001e" clip-path="url(#sc-0)"/><polygon points="292,16 308,0 330,0 314,16" fill="#d2001e" clip-path="url(#sc-0)"/><polygon points="336,16 352,0 374,0 358,16" fill="#d2001e" clip-path="url(#sc-0)"/><polygon points="380,16 396,0 418,0 402,16" fill="#d2001e" clip-path="url(#sc-0)"/><polygon points="424,16 440,0 462,0 446,16" fill="#d2001e" clip-path="url(#sc-0)"/><polygon points="468,16 484,0 506,0 490,16" fill="#d2001e" clip-path="url(#sc-0)"/><polygon points="512,16 528,0 550,0 534,16" fill="#d2001e" clip-path="url(#sc-0)"/><polygon points="556,16 572,0 594,0 578,16" fill="#d2001e" clip-path="url(#sc-0)"/><polygon points="600,16 616,0 638,0 622,16" fill="#d2001e" clip-path="url(#sc-0)"/><polygon points="644,16 660,0 682,0 666,16" fill="#d2001e" clip-path="url(#sc-0)"/><polygon points="688,16 704,0 726,0 710,16" fill="#d2001e" clip-path="url(#sc-0)"/><polygon points="732,16 748,0 770,0 754,16" fill="#d2001e" clip-path="url(#sc-0)"/><polygon points="776,16 792,0 814,0 798,16" fill="#d2001e" clip-path="url(#sc-0)"/><polygon points="820,16 836,0 858,0 842,16" fill="#d2001e" clip-path="url(#sc-0)"/><polygon points="864,16 880,0 902,0 886,16" fill="#d2001e" clip-path="url(#sc-0)"/><polygon points="908,16 924,0 946,0 930,16" fill="#d2001e" clip-path="url(#sc-0)"/><polygon points="952,16 968,0 990,0 974,16" fill="#d2001e" clip-path="url(#sc-0)"/><polygon points="996,16 1012,0 1034,0 1018,16" fill="#d2001e" clip-path="url(#sc-0)"/><polygon points="1040,16 1056,0 1078,0 1062,16" fill="#d2001e" clip-path="url(#sc-0)"/><polygon points="1084,16 1100,0 1122,0 1106,16" fill="#d2001e" clip-path="url(#sc-0)"/><polygon points="1128,16 1144,0 1166,0 1150,16" fill="#d2001e" clip-path="url(#sc-0)"/><polygon points="1172,16 1188,0 1210,0 1194,16" fill="#d2001e" clip-path="url(#sc-0)"/><polygon points="1216,16 1232,0 1254,0 1238,16" fill="#d2001e" clip-path="url(#sc-0)"/><polygon points="1260,16 1276,0 1298,0 1282,16" fill="#d2001e" clip-path="url(#sc-0)"/><polygon points="1304,16 1320,0 1342,0 1326,16" fill="#d2001e" clip-path="url(#sc-0)"/><polygon points="1348,16 1364,0 1386,0 1370,16" fill="#d2001e" clip-path="url(#sc-0)"/><polygon points="1392,16 1408,0 1430,0 1414,16" fill="#d2001e" clip-path="url(#sc-0)"/><polygon points="1436,16 1452,0 1474,0 1458,16" fill="#d2001e" clip-path="url(#sc-0)"/><polygon points="1480,16 1496,0 1518,0 1502,16" fill="#d2001e" clip-path="url(#sc-0)"/><polygon points="1524,16 1540,0 1562,0 1546,16" fill="#d2001e" clip-path="url(#sc-0)"/><polygon points="1568,16 1584,0 1606,0 1590,16" fill="#d2001e" clip-path="url(#sc-0)"/><polygon points="1612,16 1628,0 1650,0 1634,16" fill="#d2001e" clip-path="url(#sc-0)"/><polygon points="1656,16 1672,0 1694,0 1678,16" fill="#d2001e" clip-path="url(#sc-0)"/><polygon points="1700,16 1716,0 1738,0 1722,16" fill="#d2001e" clip-path="url(#sc-0)"/><polygon points="1744,16 1760,0 1782,0 1766,16" fill="#d2001e" clip-path="url(#sc-0)"/><polygon points="1788,16 1804,0 1826,0 1810,16" fill="#d2001e" clip-path="url(#sc-0)"/><polygon points="1832,16 1848,0 1870,0 1854,16" fill="#d2001e" clip-path="url(#sc-0)"/><polygon points="1876,16 1892,0 1914,0 1898,16" fill="#d2001e" clip-path="url(#sc-0)"/><polygon points="1920,16 1936,0 1958,0 1942,16" fill="#d2001e" clip-path="url(#sc-0)"/><polygon points="1964,16 1980,0 2002,0 1986,16" fill="#d2001e" clip-path="url(#sc-0)"/><polygon points="2008,16 2024,0 2046,0 2030,16" fill="#d2001e" clip-path="url(#sc-0)"/><polygon points="2052,16 2068,0 2090,0 2074,16" fill="#d2001e" clip-path="url(#sc-0)"/><polygon points="2096,16 2112,0 2134,0 2118,16" fill="#d2001e" clip-path="url(#sc-0)"/><polygon points="2140,16 2156,0 2178,0 2162,16" fill="#d2001e" clip-path="url(#sc-0)"/>
<rect x="0" y="16" width="1000" height="148" fill="#26211d"/><rect x="0" y="16" width="90" height="148" fill="#15120f"/><text x="51.0" y="90.0" font-family="Arial, Helvetica, sans-serif" font-weight="800" font-size="30" fill="#f3efe7" text-anchor="middle" transform="rotate(-90 51.0 90.0)">START</text><rect x="90" y="16" width="14" height="14" fill="#15120f"/><rect x="104" y="16" width="14" height="14" fill="#fcfaf6"/><rect x="90" y="30" width="14" height="14" fill="#fcfaf6"/><rect x="104" y="30" width="14" height="14" fill="#15120f"/><rect x="90" y="44" width="14" height="14" fill="#15120f"/><rect x="104" y="44" width="14" height="14" fill="#fcfaf6"/><rect x="90" y="58" width="14" height="14" fill="#fcfaf6"/><rect x="104" y="58" width="14" height="14" fill="#15120f"/><rect x="90" y="72" width="14" height="14" fill="#15120f"/><rect x="104" y="72" width="14" height="14" fill="#fcfaf6"/><rect x="90" y="86" width="14" height="14" fill="#fcfaf6"/><rect x="104" y="86" width="14" height="14" fill="#15120f"/><rect x="90" y="100" width="14" height="14" fill="#15120f"/><rect x="104" y="100" width="14" height="14" fill="#fcfaf6"/><rect x="90" y="114" width="14" height="14" fill="#fcfaf6"/><rect x="104" y="114" width="14" height="14" fill="#15120f"/><rect x="90" y="128" width="14" height="14" fill="#15120f"/><rect x="104" y="128" width="14" height="14" fill="#fcfaf6"/><rect x="90" y="142" width="14" height="14" fill="#fcfaf6"/><rect x="104" y="142" width="14" height="14" fill="#15120f"/><rect x="90" y="156" width="14" height="14" fill="#15120f"/><rect x="104" y="156" width="14" height="14" fill="#fcfaf6"/><line x1="132" y1="90.0" x2="960" y2="90.0" stroke="#f3efe7" stroke-width="4" stroke-dasharray="22 18" opacity="0.45"/><g transform="translate(242,30)"><rect x="-26" y="0" width="396" height="10" rx="4" fill="#4a4a4a"/><rect x="-40" y="-4" width="22" height="18" rx="3" fill="#1a1a1a"/><rect x="362" y="-4" width="22" height="18" rx="3" fill="#1a1a1a"/><rect x="-20" y="10" width="40" height="92" rx="6" fill="#15120f"/><circle cx="0" cy="30" r="11" fill="#2a2a2a"/><circle cx="0" cy="56" r="11" fill="#2a2a2a"/><circle cx="0" cy="82" r="12" fill="#ff2424"/><circle cx="0" cy="82" r="12" fill="none" stroke="#ff8a8a" stroke-width="2" opacity="0.5"/><circle cx="0" cy="82" r="5" fill="#ffb3b3" opacity="0.8"/><rect x="66" y="10" width="40" height="92" rx="6" fill="#15120f"/><circle cx="86" cy="30" r="11" fill="#2a2a2a"/><circle cx="86" cy="56" r="11" fill="#2a2a2a"/><circle cx="86" cy="82" r="12" fill="#ff2424"/><circle cx="86" cy="82" r="12" fill="none" stroke="#ff8a8a" stroke-width="2" opacity="0.5"/><circle cx="86" cy="82" r="5" fill="#ffb3b3" opacity="0.8"/><rect x="152" y="10" width="40" height="92" rx="6" fill="#15120f"/><circle cx="172" cy="30" r="11" fill="#2a2a2a"/><circle cx="172" cy="56" r="11" fill="#2a2a2a"/><circle cx="172" cy="82" r="12" fill="#ff2424"/><circle cx="172" cy="82" r="12" fill="none" stroke="#ff8a8a" stroke-width="2" opacity="0.5"/><circle cx="172" cy="82" r="5" fill="#ffb3b3" opacity="0.8"/><rect x="238" y="10" width="40" height="92" rx="6" fill="#15120f"/><circle cx="258" cy="30" r="11" fill="#2a2a2a"/><circle cx="258" cy="56" r="11" fill="#2a2a2a"/><circle cx="258" cy="82" r="12" fill="#ff2424"/><circle cx="258" cy="82" r="12" fill="none" stroke="#ff8a8a" stroke-width="2" opacity="0.5"/><circle cx="258" cy="82" r="5" fill="#ffb3b3" opacity="0.8"/><rect x="324" y="10" width="40" height="92" rx="6" fill="#15120f"/><circle cx="344" cy="30" r="11" fill="#2a2a2a"/><circle cx="344" cy="56" r="11" fill="#2a2a2a"/><circle cx="344" cy="82" r="12" fill="#ff2424"/><circle cx="344" cy="82" r="12" fill="none" stroke="#ff8a8a" stroke-width="2" opacity="0.5"/><circle cx="344" cy="82" r="5" fill="#ffb3b3" opacity="0.8"/></g><text x="950" y="50" font-family="Arial, Helvetica, sans-serif" font-weight="700" font-size="22" letter-spacing="2" fill="#d2001e" text-anchor="end" opacity="0.9">START</text>
<rect x="0" y="164" width="1000" height="16" fill="#fcfaf6"/><clipPath id="sc-164"><rect x="0" y="164" width="1000" height="16"/></clipPath><polygon points="-104,180 -88,164 -66,164 -82,180" fill="#d2001e" clip-path="url(#sc-164)"/><polygon points="-60,180 -44,164 -22,164 -38,180" fill="#d2001e" clip-path="url(#sc-164)"/><polygon points="-16,180 0,164 22,164 6,180" fill="#d2001e" clip-path="url(#sc-164)"/><polygon points="28,180 44,164 66,164 50,180" fill="#d2001e" clip-path="url(#sc-164)"/><polygon points="72,180 88,164 110,164 94,180" fill="#d2001e" clip-path="url(#sc-164)"/><polygon points="116,180 132,164 154,164 138,180" fill="#d2001e" clip-path="url(#sc-164)"/><polygon points="160,180 176,164 198,164 182,180" fill="#d2001e" clip-path="url(#sc-164)"/><polygon points="204,180 220,164 242,164 226,180" fill="#d2001e" clip-path="url(#sc-164)"/><polygon points="248,180 264,164 286,164 270,180" fill="#d2001e" clip-path="url(#sc-164)"/><polygon points="292,180 308,164 330,164 314,180" fill="#d2001e" clip-path="url(#sc-164)"/><polygon points="336,180 352,164 374,164 358,180" fill="#d2001e" clip-path="url(#sc-164)"/><polygon points="380,180 396,164 418,164 402,180" fill="#d2001e" clip-path="url(#sc-164)"/><polygon points="424,180 440,164 462,164 446,180" fill="#d2001e" clip-path="url(#sc-164)"/><polygon points="468,180 484,164 506,164 490,180" fill="#d2001e" clip-path="url(#sc-164)"/><polygon points="512,180 528,164 550,164 534,180" fill="#d2001e" clip-path="url(#sc-164)"/><polygon points="556,180 572,164 594,164 578,180" fill="#d2001e" clip-path="url(#sc-164)"/><polygon points="600,180 616,164 638,164 622,180" fill="#d2001e" clip-path="url(#sc-164)"/><polygon points="644,180 660,164 682,164 666,180" fill="#d2001e" clip-path="url(#sc-164)"/><polygon points="688,180 704,164 726,164 710,180" fill="#d2001e" clip-path="url(#sc-164)"/><polygon points="732,180 748,164 770,164 754,180" fill="#d2001e" clip-path="url(#sc-164)"/><polygon points="776,180 792,164 814,164 798,180" fill="#d2001e" clip-path="url(#sc-164)"/><polygon points="820,180 836,164 858,164 842,180" fill="#d2001e" clip-path="url(#sc-164)"/><polygon points="864,180 880,164 902,164 886,180" fill="#d2001e" clip-path="url(#sc-164)"/><polygon points="908,180 924,164 946,164 930,180" fill="#d2001e" clip-path="url(#sc-164)"/><polygon points="952,180 968,164 990,164 974,180" fill="#d2001e" clip-path="url(#sc-164)"/><polygon points="996,180 1012,164 1034,164 1018,180" fill="#d2001e" clip-path="url(#sc-164)"/><polygon points="1040,180 1056,164 1078,164 1062,180" fill="#d2001e" clip-path="url(#sc-164)"/><polygon points="1084,180 1100,164 1122,164 1106,180" fill="#d2001e" clip-path="url(#sc-164)"/><polygon points="1128,180 1144,164 1166,164 1150,180" fill="#d2001e" clip-path="url(#sc-164)"/><polygon points="1172,180 1188,164 1210,164 1194,180" fill="#d2001e" clip-path="url(#sc-164)"/><polygon points="1216,180 1232,164 1254,164 1238,180" fill="#d2001e" clip-path="url(#sc-164)"/><polygon points="1260,180 1276,164 1298,164 1282,180" fill="#d2001e" clip-path="url(#sc-164)"/><polygon points="1304,180 1320,164 1342,164 1326,180" fill="#d2001e" clip-path="url(#sc-164)"/><polygon points="1348,180 1364,164 1386,164 1370,180" fill="#d2001e" clip-path="url(#sc-164)"/><polygon points="1392,180 1408,164 1430,164 1414,180" fill="#d2001e" clip-path="url(#sc-164)"/><polygon points="1436,180 1452,164 1474,164 1458,180" fill="#d2001e" clip-path="url(#sc-164)"/><polygon points="1480,180 1496,164 1518,164 1502,180" fill="#d2001e" clip-path="url(#sc-164)"/><polygon points="1524,180 1540,164 1562,164 1546,180" fill="#d2001e" clip-path="url(#sc-164)"/><polygon points="1568,180 1584,164 1606,164 1590,180" fill="#d2001e" clip-path="url(#sc-164)"/><polygon points="1612,180 1628,164 1650,164 1634,180" fill="#d2001e" clip-path="url(#sc-164)"/><polygon points="1656,180 1672,164 1694,164 1678,180" fill="#d2001e" clip-path="url(#sc-164)"/><polygon points="1700,180 1716,164 1738,164 1722,180" fill="#d2001e" clip-path="url(#sc-164)"/><polygon points="1744,180 1760,164 1782,164 1766,180" fill="#d2001e" clip-path="url(#sc-164)"/><polygon points="1788,180 1804,164 1826,164 1810,180" fill="#d2001e" clip-path="url(#sc-164)"/><polygon points="1832,180 1848,164 1870,164 1854,180" fill="#d2001e" clip-path="url(#sc-164)"/><polygon points="1876,180 1892,164 1914,164 1898,180" fill="#d2001e" clip-path="url(#sc-164)"/><polygon points="1920,180 1936,164 1958,164 1942,180" fill="#d2001e" clip-path="url(#sc-164)"/><polygon points="1964,180 1980,164 2002,164 1986,180" fill="#d2001e" clip-path="url(#sc-164)"/><polygon points="2008,180 2024,164 2046,164 2030,180" fill="#d2001e" clip-path="url(#sc-164)"/><polygon points="2052,180 2068,164 2090,164 2074,180" fill="#d2001e" clip-path="url(#sc-164)"/><polygon points="2096,180 2112,164 2134,164 2118,180" fill="#d2001e" clip-path="url(#sc-164)"/><polygon points="2140,180 2156,164 2178,164 2162,180" fill="#d2001e" clip-path="url(#sc-164)"/>
</g>
</svg>
