<svg width="1000" height="140" viewBox="0 0 1000 140" xmlns="http://www.w3.org/2000/svg">
<defs><clipPath id="clip3"><rect width="1000" height="140" rx="16"/></clipPath></defs>
<g clip-path="url(#clip3)">
<rect width="1000" height="140" fill="#f5a9a9"/>
<text x="40" y="62" font-family="Arial, Helvetica, sans-serif" font-weight="800" font-size="44" fill="#7a1320">ROUND 3</text>
<text x="40" y="96" font-family="Arial, Helvetica, sans-serif" font-weight="600" font-size="22" letter-spacing="2" fill="#3a1010" opacity="0.75">PIT LANE</text>
<rect x="0" y="130" width="18" height="10" fill="#f3efe7"/><rect x="18" y="130" width="18" height="10" fill="#3a1010"/><rect x="36" y="130" width="18" height="10" fill="#f3efe7"/><rect x="54" y="130" width="18" height="10" fill="#3a1010"/><rect x="72" y="130" width="18" height="10" fill="#f3efe7"/><rect x="90" y="130" width="18" height="10" fill="#3a1010"/><rect x="108" y="130" width="18" height="10" fill="#f3efe7"/><rect x="126" y="130" width="18" height="10" fill="#3a1010"/><rect x="144" y="130" width="18" height="10" fill="#f3efe7"/><rect x="162" y="130" width="18" height="10" fill="#3a1010"/><rect x="180" y="130" width="18" height="10" fill="#f3efe7"/><rect x="198" y="130" width="18" height="10" fill="#3a1010"/><rect x="216" y="130" width="18" height="10" fill="#f3efe7"/><rect x="234" y="130" width="18" height="10" fill="#3a1010"/><rect x="252" y="130" width="18" height="10" fill="#f3efe7"/><rect x="270" y="130" width="18" height="10" fill="#3a1010"/><rect x="288" y="130" width="18" height="10" fill="#f3efe7"/><rect x="306" y="130" width="18" height="10" fill="#3a1010"/><rect x="324" y="130" width="18" height="10" fill="#f3efe7"/><rect x="342" y="130" width="18" height="10" fill="#3a1010"/><rect x="360" y="130" width="18" height="10" fill="#f3efe7"/><rect x="378" y="130" width="18" height="10" fill="#3a1010"/><rect x="396" y="130" width="18" height="10" fill="#f3efe7"/><rect x="414" y="130" width="18" height="10" fill="#3a1010"/><rect x="432" y="130" width="18" height="10" fill="#f3efe7"/><rect x="450" y="130" width="18" height="10" fill="#3a1010"/><rect x="468" y="130" width="18" height="10" fill="#f3efe7"/><rect x="486" y="130" width="18" height="10" fill="#3a1010"/><rect x="504" y="130" width="18" height="10" fill="#f3efe7"/><rect x="522" y="130" width="18" height="10" fill="#3a1010"/><rect x="540" y="130" width="18" height="10" fill="#f3efe7"/><rect x="558" y="130" width="18" height="10" fill="#3a1010"/><rect x="576" y="130" width="18" height="10" fill="#f3efe7"/><rect x="594" y="130" width="18" height="10" fill="#3a1010"/><rect x="612" y="130" width="18" height="10" fill="#f3efe7"/><rect x="630" y="130" width="18" height="10" fill="#3a1010"/><rect x="648" y="130" width="18" height="10" fill="#f3efe7"/><rect x="666" y="130" width="18" height="10" fill="#3a1010"/><rect x="684" y="130" width="18" height="10" fill="#f3efe7"/><rect x="702" y="130" width="18" height="10" fill="#3a1010"/><rect x="720" y="130" width="18" height="10" fill="#f3efe7"/><rect x="738" y="130" width="18" height="10" fill="#3a1010"/><rect x="756" y="130" width="18" height="10" fill="#f3efe7"/><rect x="774" y="130" width="18" height="10" fill="#3a1010"/><rect x="792" y="130" width="18" height="10" fill="#f3efe7"/><rect x="810" y="130" width="18" height="10" fill="#3a1010"/><rect x="828" y="130" width="18" height="10" fill="#f3efe7"/><rect x="846" y="130" width="18" height="10" fill="#3a1010"/><rect x="864" y="130" width="18" height="10" fill="#f3efe7"/><rect x="882" y="130" width="18" height="10" fill="#3a1010"/><rect x="900" y="130" width="18" height="10" fill="#f3efe7"/><rect x="918" y="130" width="18" height="10" fill="#3a1010"/><rect x="936" y="130" width="18" height="10" fill="#f3efe7"/><rect x="954" y="130" width="18" height="10" fill="#3a1010"/><rect x="972" y="130" width="18" height="10" fill="#f3efe7"/>
</g>
</svg>