<svg width="1000" height="300" viewBox="0 0 1000 300" xmlns="http://www.w3.org/2000/svg">
<defs><clipPath id="clipT"><rect width="1000" height="300" rx="20"/></clipPath></defs>
<g clip-path="url(#clipT)">
<rect x="0" y="0" width="1000" height="34" fill="#fcfaf6"/><clipPath id="stripeClip-0"><rect x="0" y="0" width="1000" height="34"/></clipPath><polygon points="-138,34 -104,0 -78,0 -112,34" fill="#d2001e" clip-path="url(#stripeClip-0)"/><polygon points="-86,34 -52,0 -26,0 -60,34" fill="#d2001e" clip-path="url(#stripeClip-0)"/><polygon points="-34,34 0,0 26,0 -8,34" fill="#d2001e" clip-path="url(#stripeClip-0)"/><polygon points="18,34 52,0 78,0 44,34" fill="#d2001e" clip-path="url(#stripeClip-0)"/><polygon points="70,34 104,0 130,0 96,34" fill="#d2001e" clip-path="url(#stripeClip-0)"/><polygon points="122,34 156,0 182,0 148,34" fill="#d2001e" clip-path="url(#stripeClip-0)"/><polygon points="174,34 208,0 234,0 200,34" fill="#d2001e" clip-path="url(#stripeClip-0)"/><polygon points="226,34 260,0 286,0 252,34" fill="#d2001e" clip-path="url(#stripeClip-0)"/><polygon points="278,34 312,0 338,0 304,34" fill="#d2001e" clip-path="url(#stripeClip-0)"/><polygon points="330,34 364,0 390,0 356,34" fill="#d2001e" clip-path="url(#stripeClip-0)"/><polygon points="382,34 416,0 442,0 408,34" fill="#d2001e" clip-path="url(#stripeClip-0)"/><polygon points="434,34 468,0 494,0 460,34" fill="#d2001e" clip-path="url(#stripeClip-0)"/><polygon points="486,34 520,0 546,0 512,34" fill="#d2001e" clip-path="url(#stripeClip-0)"/><polygon points="538,34 572,0 598,0 564,34" fill="#d2001e" clip-path="url(#stripeClip-0)"/><polygon points="590,34 624,0 650,0 616,34" fill="#d2001e" clip-path="url(#stripeClip-0)"/><polygon points="642,34 676,0 702,0 668,34" fill="#d2001e" clip-path="url(#stripeClip-0)"/><polygon points="694,34 728,0 754,0 720,34" fill="#d2001e" clip-path="url(#stripeClip-0)"/><polygon points="746,34 780,0 806,0 772,34" fill="#d2001e" clip-path="url(#stripeClip-0)"/><polygon points="798,34 832,0 858,0 824,34" fill="#d2001e" clip-path="url(#stripeClip-0)"/><polygon points="850,34 884,0 910,0 876,34" fill="#d2001e" clip-path="url(#stripeClip-0)"/><polygon points="902,34 936,0 962,0 928,34" fill="#d2001e" clip-path="url(#stripeClip-0)"/><polygon points="954,34 988,0 1014,0 980,34" fill="#d2001e" clip-path="url(#stripeClip-0)"/><polygon points="1006,34 1040,0 1066,0 1032,34" fill="#d2001e" clip-path="url(#stripeClip-0)"/><polygon points="1058,34 1092,0 1118,0 1084,34" fill="#d2001e" clip-path="url(#stripeClip-0)"/><polygon points="1110,34 1144,0 1170,0 1136,34" fill="#d2001e" clip-path="url(#stripeClip-0)"/><polygon points="1162,34 1196,0 1222,0 1188,34" fill="#d2001e" clip-path="url(#stripeClip-0)"/><polygon points="1214,34 1248,0 1274,0 1240,34" fill="#d2001e" clip-path="url(#stripeClip-0)"/><polygon points="1266,34 1300,0 1326,0 1292,34" fill="#d2001e" clip-path="url(#stripeClip-0)"/><polygon points="1318,34 1352,0 1378,0 1344,34" fill="#d2001e" clip-path="url(#stripeClip-0)"/><polygon points="1370,34 1404,0 1430,0 1396,34" fill="#d2001e" clip-path="url(#stripeClip-0)"/><polygon points="1422,34 1456,0 1482,0 1448,34" fill="#d2001e" clip-path="url(#stripeClip-0)"/><polygon points="1474,34 1508,0 1534,0 1500,34" fill="#d2001e" clip-path="url(#stripeClip-0)"/><polygon points="1526,34 1560,0 1586,0 1552,34" fill="#d2001e" clip-path="url(#stripeClip-0)"/><polygon points="1578,34 1612,0 1638,0 1604,34" fill="#d2001e" clip-path="url(#stripeClip-0)"/><polygon points="1630,34 1664,0 1690,0 1656,34" fill="#d2001e" clip-path="url(#stripeClip-0)"/><polygon points="1682,34 1716,0 1742,0 1708,34" fill="#d2001e" clip-path="url(#stripeClip-0)"/><polygon points="1734,34 1768,0 1794,0 1760,34" fill="#d2001e" clip-path="url(#stripeClip-0)"/><polygon points="1786,34 1820,0 1846,0 1812,34" fill="#d2001e" clip-path="url(#stripeClip-0)"/><polygon points="1838,34 1872,0 1898,0 1864,34" fill="#d2001e" clip-path="url(#stripeClip-0)"/><polygon points="1890,34 1924,0 1950,0 1916,34" fill="#d2001e" clip-path="url(#stripeClip-0)"/><polygon points="1942,34 1976,0 2002,0 1968,34" fill="#d2001e" clip-path="url(#stripeClip-0)"/><polygon points="1994,34 2028,0 2054,0 2020,34" fill="#d2001e" clip-path="url(#stripeClip-0)"/><polygon points="2046,34 2080,0 2106,0 2072,34" fill="#d2001e" clip-path="url(#stripeClip-0)"/><polygon points="2098,34 2132,0 2158,0 2124,34" fill="#d2001e" clip-path="url(#stripeClip-0)"/><polygon points="2150,34 2184,0 2210,0 2176,34" fill="#d2001e" clip-path="url(#stripeClip-0)"/>
<rect x="0" y="34" width="1000" height="232" fill="#26211d"/><rect x="40" y="54" width="920" height="2" fill="#2e2823"/><rect x="40" y="100" width="920" height="2" fill="#2e2823"/><rect x="40" y="146" width="920" height="2" fill="#2e2823"/><rect x="40" y="192" width="920" height="2" fill="#2e2823"/><rect x="40" y="238" width="920" height="2" fill="#2e2823"/><path d="M40,106 L40,60 L90,60" fill="none" stroke="#f3efe7" stroke-width="4" stroke-linecap="square" opacity="0.85"/><path d="M130,106 L130,60 L180,60" fill="none" stroke="#f3efe7" stroke-width="4" stroke-linecap="square" opacity="0.85"/><path d="M40,196 L40,242 L90,242" fill="none" stroke="#f3efe7" stroke-width="4" stroke-linecap="square" opacity="0.85"/><path d="M130,196 L130,242 L180,242" fill="none" stroke="#f3efe7" stroke-width="4" stroke-linecap="square" opacity="0.85"/><rect x="880" y="34" width="15" height="15" fill="#15120f"/><rect x="895" y="34" width="15" height="15" fill="#fcfaf6"/><rect x="910" y="34" width="15" height="15" fill="#15120f"/><rect x="925" y="34" width="15" height="15" fill="#fcfaf6"/><rect x="940" y="34" width="15" height="15" fill="#15120f"/><rect x="880" y="49" width="15" height="15" fill="#fcfaf6"/><rect x="895" y="49" width="15" height="15" fill="#15120f"/><rect x="910" y="49" width="15" height="15" fill="#fcfaf6"/><rect x="925" y="49" width="15" height="15" fill="#15120f"/><rect x="940" y="49" width="15" height="15" fill="#fcfaf6"/><rect x="880" y="64" width="15" height="15" fill="#15120f"/><rect x="895" y="64" width="15" height="15" fill="#fcfaf6"/><rect x="910" y="64" width="15" height="15" fill="#15120f"/><rect x="925" y="64" width="15" height="15" fill="#fcfaf6"/><rect x="940" y="64" width="15" height="15" fill="#15120f"/><rect x="880" y="79" width="15" height="15" fill="#fcfaf6"/><rect x="895" y="79" width="15" height="15" fill="#15120f"/><rect x="910" y="79" width="15" height="15" fill="#fcfaf6"/><rect x="925" y="79" width="15" height="15" fill="#15120f"/><rect x="940" y="79" width="15" height="15" fill="#fcfaf6"/><rect x="880" y="94" width="15" height="15" fill="#15120f"/><rect x="895" y="94" width="15" height="15" fill="#fcfaf6"/><rect x="910" y="94" width="15" height="15" fill="#15120f"/><rect x="925" y="94" width="15" height="15" fill="#fcfaf6"/><rect x="940" y="94" width="15" height="15" fill="#15120f"/><rect x="880" y="109" width="15" height="15" fill="#fcfaf6"/><rect x="895" y="109" width="15" height="15" fill="#15120f"/><rect x="910" y="109" width="15" height="15" fill="#fcfaf6"/><rect x="925" y="109" width="15" height="15" fill="#15120f"/><rect x="940" y="109" width="15" height="15" fill="#fcfaf6"/><rect x="880" y="124" width="15" height="15" fill="#15120f"/><rect x="895" y="124" width="15" height="15" fill="#fcfaf6"/><rect x="910" y="124" width="15" height="15" fill="#15120f"/><rect x="925" y="124" width="15" height="15" fill="#fcfaf6"/><rect x="940" y="124" width="15" height="15" fill="#15120f"/><rect x="880" y="139" width="15" height="15" fill="#fcfaf6"/><rect x="895" y="139" width="15" height="15" fill="#15120f"/><rect x="910" y="139" width="15" height="15" fill="#fcfaf6"/><rect x="925" y="139" width="15" height="15" fill="#15120f"/><rect x="940" y="139" width="15" height="15" fill="#fcfaf6"/><rect x="880" y="154" width="15" height="15" fill="#15120f"/><rect x="895" y="154" width="15" height="15" fill="#fcfaf6"/><rect x="910" y="154" width="15" height="15" fill="#15120f"/><rect x="925" y="154" width="15" height="15" fill="#fcfaf6"/><rect x="940" y="154" width="15" height="15" fill="#15120f"/><rect x="880" y="169" width="15" height="15" fill="#fcfaf6"/><rect x="895" y="169" width="15" height="15" fill="#15120f"/><rect x="910" y="169" width="15" height="15" fill="#fcfaf6"/><rect x="925" y="169" width="15" height="15" fill="#15120f"/><rect x="940" y="169" width="15" height="15" fill="#fcfaf6"/><rect x="880" y="184" width="15" height="15" fill="#15120f"/><rect x="895" y="184" width="15" height="15" fill="#fcfaf6"/><rect x="910" y="184" width="15" height="15" fill="#15120f"/><rect x="925" y="184" width="15" height="15" fill="#fcfaf6"/><rect x="940" y="184" width="15" height="15" fill="#15120f"/><rect x="880" y="199" width="15" height="15" fill="#fcfaf6"/><rect x="895" y="199" width="15" height="15" fill="#15120f"/><rect x="910" y="199" width="15" height="15" fill="#fcfaf6"/><rect x="925" y="199" width="15" height="15" fill="#15120f"/><rect x="940" y="199" width="15" height="15" fill="#fcfaf6"/><rect x="880" y="214" width="15" height="15" fill="#15120f"/><rect x="895" y="214" width="15" height="15" fill="#fcfaf6"/><rect x="910" y="214" width="15" height="15" fill="#15120f"/><rect x="925" y="214" width="15" height="15" fill="#fcfaf6"/><rect x="940" y="214" width="15" height="15" fill="#15120f"/><rect x="880" y="229" width="15" height="15" fill="#fcfaf6"/><rect x="895" y="229" width="15" height="15" fill="#15120f"/><rect x="910" y="229" width="15" height="15" fill="#fcfaf6"/><rect x="925" y="229" width="15" height="15" fill="#15120f"/><rect x="940" y="229" width="15" height="15" fill="#fcfaf6"/><rect x="880" y="244" width="15" height="15" fill="#15120f"/><rect x="895" y="244" width="15" height="15" fill="#fcfaf6"/><rect x="910" y="244" width="15" height="15" fill="#15120f"/><rect x="925" y="244" width="15" height="15" fill="#fcfaf6"/><rect x="940" y="244" width="15" height="15" fill="#15120f"/><rect x="880" y="259" width="15" height="15" fill="#fcfaf6"/><rect x="895" y="259" width="15" height="15" fill="#15120f"/><rect x="910" y="259" width="15" height="15" fill="#fcfaf6"/><rect x="925" y="259" width="15" height="15" fill="#15120f"/><rect x="940" y="259" width="15" height="15" fill="#fcfaf6"/><text x="50%" y="142.0" font-family="Arial, Helvetica, sans-serif" font-weight="800" font-size="50" fill="#f3efe7" text-anchor="middle" letter-spacing="1">WELCOME TO MY TRACK</text><text x="50%" y="178.0" font-family="Arial, Helvetica, sans-serif" font-weight="500" font-size="19" fill="#d2001e" text-anchor="middle" opacity="0.95">Federica Cardillo</text>
<rect x="0" y="266" width="1000" height="34" fill="#fcfaf6"/><clipPath id="stripeClip-266"><rect x="0" y="266" width="1000" height="34"/></clipPath><polygon points="-138,300 -104,266 -78,266 -112,300" fill="#d2001e" clip-path="url(#stripeClip-266)"/><polygon points="-86,300 -52,266 -26,266 -60,300" fill="#d2001e" clip-path="url(#stripeClip-266)"/><polygon points="-34,300 0,266 26,266 -8,300" fill="#d2001e" clip-path="url(#stripeClip-266)"/><polygon points="18,300 52,266 78,266 44,300" fill="#d2001e" clip-path="url(#stripeClip-266)"/><polygon points="70,300 104,266 130,266 96,300" fill="#d2001e" clip-path="url(#stripeClip-266)"/><polygon points="122,300 156,266 182,266 148,300" fill="#d2001e" clip-path="url(#stripeClip-266)"/><polygon points="174,300 208,266 234,266 200,300" fill="#d2001e" clip-path="url(#stripeClip-266)"/><polygon points="226,300 260,266 286,266 252,300" fill="#d2001e" clip-path="url(#stripeClip-266)"/><polygon points="278,300 312,266 338,266 304,300" fill="#d2001e" clip-path="url(#stripeClip-266)"/><polygon points="330,300 364,266 390,266 356,300" fill="#d2001e" clip-path="url(#stripeClip-266)"/><polygon points="382,300 416,266 442,266 408,300" fill="#d2001e" clip-path="url(#stripeClip-266)"/><polygon points="434,300 468,266 494,266 460,300" fill="#d2001e" clip-path="url(#stripeClip-266)"/><polygon points="486,300 520,266 546,266 512,300" fill="#d2001e" clip-path="url(#stripeClip-266)"/><polygon points="538,300 572,266 598,266 564,300" fill="#d2001e" clip-path="url(#stripeClip-266)"/><polygon points="590,300 624,266 650,266 616,300" fill="#d2001e" clip-path="url(#stripeClip-266)"/><polygon points="642,300 676,266 702,266 668,300" fill="#d2001e" clip-path="url(#stripeClip-266)"/><polygon points="694,300 728,266 754,266 720,300" fill="#d2001e" clip-path="url(#stripeClip-266)"/><polygon points="746,300 780,266 806,266 772,300" fill="#d2001e" clip-path="url(#stripeClip-266)"/><polygon points="798,300 832,266 858,266 824,300" fill="#d2001e" clip-path="url(#stripeClip-266)"/><polygon points="850,300 884,266 910,266 876,300" fill="#d2001e" clip-path="url(#stripeClip-266)"/><polygon points="902,300 936,266 962,266 928,300" fill="#d2001e" clip-path="url(#stripeClip-266)"/><polygon points="954,300 988,266 1014,266 980,300" fill="#d2001e" clip-path="url(#stripeClip-266)"/><polygon points="1006,300 1040,266 1066,266 1032,300" fill="#d2001e" clip-path="url(#stripeClip-266)"/><polygon points="1058,300 1092,266 1118,266 1084,300" fill="#d2001e" clip-path="url(#stripeClip-266)"/><polygon points="1110,300 1144,266 1170,266 1136,300" fill="#d2001e" clip-path="url(#stripeClip-266)"/><polygon points="1162,300 1196,266 1222,266 1188,300" fill="#d2001e" clip-path="url(#stripeClip-266)"/><polygon points="1214,300 1248,266 1274,266 1240,300" fill="#d2001e" clip-path="url(#stripeClip-266)"/><polygon points="1266,300 1300,266 1326,266 1292,300" fill="#d2001e" clip-path="url(#stripeClip-266)"/><polygon points="1318,300 1352,266 1378,266 1344,300" fill="#d2001e" clip-path="url(#stripeClip-266)"/><polygon points="1370,300 1404,266 1430,266 1396,300" fill="#d2001e" clip-path="url(#stripeClip-266)"/><polygon points="1422,300 1456,266 1482,266 1448,300" fill="#d2001e" clip-path="url(#stripeClip-266)"/><polygon points="1474,300 1508,266 1534,266 1500,300" fill="#d2001e" clip-path="url(#stripeClip-266)"/><polygon points="1526,300 1560,266 1586,266 1552,300" fill="#d2001e" clip-path="url(#stripeClip-266)"/><polygon points="1578,300 1612,266 1638,266 1604,300" fill="#d2001e" clip-path="url(#stripeClip-266)"/><polygon points="1630,300 1664,266 1690,266 1656,300" fill="#d2001e" clip-path="url(#stripeClip-266)"/><polygon points="1682,300 1716,266 1742,266 1708,300" fill="#d2001e" clip-path="url(#stripeClip-266)"/><polygon points="1734,300 1768,266 1794,266 1760,300" fill="#d2001e" clip-path="url(#stripeClip-266)"/><polygon points="1786,300 1820,266 1846,266 1812,300" fill="#d2001e" clip-path="url(#stripeClip-266)"/><polygon points="1838,300 1872,266 1898,266 1864,300" fill="#d2001e" clip-path="url(#stripeClip-266)"/><polygon points="1890,300 1924,266 1950,266 1916,300" fill="#d2001e" clip-path="url(#stripeClip-266)"/><polygon points="1942,300 1976,266 2002,266 1968,300" fill="#d2001e" clip-path="url(#stripeClip-266)"/><polygon points="1994,300 2028,266 2054,266 2020,300" fill="#d2001e" clip-path="url(#stripeClip-266)"/><polygon points="2046,300 2080,266 2106,266 2072,300" fill="#d2001e" clip-path="url(#stripeClip-266)"/><polygon points="2098,300 2132,266 2158,266 2124,300" fill="#d2001e" clip-path="url(#stripeClip-266)"/><polygon points="2150,300 2184,266 2210,266 2176,300" fill="#d2001e" clip-path="url(#stripeClip-266)"/>
</g>
</svg>
