<svg width="1000" height="220" viewBox="0 0 1000 220" xmlns="http://www.w3.org/2000/svg">
<defs><clipPath id="clipT"><rect width="1000" height="220" rx="20"/></clipPath></defs>
<g clip-path="url(#clipT)">
<rect width="1000" height="220" fill="#f5a9a9"/>
<rect x="0" y="0" width="18" height="10" fill="#f3efe7"/><rect x="18" y="0" width="18" height="10" fill="#3a1010"/><rect x="36" y="0" width="18" height="10" fill="#f3efe7"/><rect x="54" y="0" width="18" height="10" fill="#3a1010"/><rect x="72" y="0" width="18" height="10" fill="#f3efe7"/><rect x="90" y="0" width="18" height="10" fill="#3a1010"/><rect x="108" y="0" width="18" height="10" fill="#f3efe7"/><rect x="126" y="0" width="18" height="10" fill="#3a1010"/><rect x="144" y="0" width="18" height="10" fill="#f3efe7"/><rect x="162" y="0" width="18" height="10" fill="#3a1010"/><rect x="180" y="0" width="18" height="10" fill="#f3efe7"/><rect x="198" y="0" width="18" height="10" fill="#3a1010"/><rect x="216" y="0" width="18" height="10" fill="#f3efe7"/><rect x="234" y="0" width="18" height="10" fill="#3a1010"/><rect x="252" y="0" width="18" height="10" fill="#f3efe7"/><rect x="270" y="0" width="18" height="10" fill="#3a1010"/><rect x="288" y="0" width="18" height="10" fill="#f3efe7"/><rect x="306" y="0" width="18" height="10" fill="#3a1010"/><rect x="324" y="0" width="18" height="10" fill="#f3efe7"/><rect x="342" y="0" width="18" height="10" fill="#3a1010"/><rect x="360" y="0" width="18" height="10" fill="#f3efe7"/><rect x="378" y="0" width="18" height="10" fill="#3a1010"/><rect x="396" y="0" width="18" height="10" fill="#f3efe7"/><rect x="414" y="0" width="18" height="10" fill="#3a1010"/><rect x="432" y="0" width="18" height="10" fill="#f3efe7"/><rect x="450" y="0" width="18" height="10" fill="#3a1010"/><rect x="468" y="0" width="18" height="10" fill="#f3efe7"/><rect x="486" y="0" width="18" height="10" fill="#3a1010"/><rect x="504" y="0" width="18" height="10" fill="#f3efe7"/><rect x="522" y="0" width="18" height="10" fill="#3a1010"/><rect x="540" y="0" width="18" height="10" fill="#f3efe7"/><rect x="558" y="0" width="18" height="10" fill="#3a1010"/><rect x="576" y="0" width="18" height="10" fill="#f3efe7"/><rect x="594" y="0" width="18" height="10" fill="#3a1010"/><rect x="612" y="0" width="18" height="10" fill="#f3efe7"/><rect x="630" y="0" width="18" height="10" fill="#3a1010"/><rect x="648" y="0" width="18" height="10" fill="#f3efe7"/><rect x="666" y="0" width="18" height="10" fill="#3a1010"/><rect x="684" y="0" width="18" height="10" fill="#f3efe7"/><rect x="702" y="0" width="18" height="10" fill="#3a1010"/><rect x="720" y="0" width="18" height="10" fill="#f3efe7"/><rect x="738" y="0" width="18" height="10" fill="#3a1010"/><rect x="756" y="0" width="18" height="10" fill="#f3efe7"/><rect x="774" y="0" width="18" height="10" fill="#3a1010"/><rect x="792" y="0" width="18" height="10" fill="#f3efe7"/><rect x="810" y="0" width="18" height="10" fill="#3a1010"/><rect x="828" y="0" width="18" height="10" fill="#f3efe7"/><rect x="846" y="0" width="18" height="10" fill="#3a1010"/><rect x="864" y="0" width="18" height="10" fill="#f3efe7"/><rect x="882" y="0" width="18" height="10" fill="#3a1010"/><rect x="900" y="0" width="18" height="10" fill="#f3efe7"/><rect x="918" y="0" width="18" height="10" fill="#3a1010"/><rect x="936" y="0" width="18" height="10" fill="#f3efe7"/><rect x="954" y="0" width="18" height="10" fill="#3a1010"/><rect x="972" y="0" width="18" height="10" fill="#f3efe7"/>
<text x="50%" y="118" font-family="Arial, Helvetica, sans-serif" font-weight="800" font-size="64" fill="#7a1320" text-anchor="middle" letter-spacing="1">FOLLOW MY TRACK</text>
<text x="50%" y="156" font-family="Arial, Helvetica, sans-serif" font-weight="500" font-size="22" fill="#3a1010" text-anchor="middle" opacity="0.8">Federica Cardillo · she/her · five rounds of research</text>
<rect x="0" y="210" width="18" height="10" fill="#f3efe7"/><rect x="18" y="210" width="18" height="10" fill="#3a1010"/><rect x="36" y="210" width="18" height="10" fill="#f3efe7"/><rect x="54" y="210" width="18" height="10" fill="#3a1010"/><rect x="72" y="210" width="18" height="10" fill="#f3efe7"/><rect x="90" y="210" width="18" height="10" fill="#3a1010"/><rect x="108" y="210" width="18" height="10" fill="#f3efe7"/><rect x="126" y="210" width="18" height="10" fill="#3a1010"/><rect x="144" y="210" width="18" height="10" fill="#f3efe7"/><rect x="162" y="210" width="18" height="10" fill="#3a1010"/><rect x="180" y="210" width="18" height="10" fill="#f3efe7"/><rect x="198" y="210" width="18" height="10" fill="#3a1010"/><rect x="216" y="210" width="18" height="10" fill="#f3efe7"/><rect x="234" y="210" width="18" height="10" fill="#3a1010"/><rect x="252" y="210" width="18" height="10" fill="#f3efe7"/><rect x="270" y="210" width="18" height="10" fill="#3a1010"/><rect x="288" y="210" width="18" height="10" fill="#f3efe7"/><rect x="306" y="210" width="18" height="10" fill="#3a1010"/><rect x="324" y="210" width="18" height="10" fill="#f3efe7"/><rect x="342" y="210" width="18" height="10" fill="#3a1010"/><rect x="360" y="210" width="18" height="10" fill="#f3efe7"/><rect x="378" y="210" width="18" height="10" fill="#3a1010"/><rect x="396" y="210" width="18" height="10" fill="#f3efe7"/><rect x="414" y="210" width="18" height="10" fill="#3a1010"/><rect x="432" y="210" width="18" height="10" fill="#f3efe7"/><rect x="450" y="210" width="18" height="10" fill="#3a1010"/><rect x="468" y="210" width="18" height="10" fill="#f3efe7"/><rect x="486" y="210" width="18" height="10" fill="#3a1010"/><rect x="504" y="210" width="18" height="10" fill="#f3efe7"/><rect x="522" y="210" width="18" height="10" fill="#3a1010"/><rect x="540" y="210" width="18" height="10" fill="#f3efe7"/><rect x="558" y="210" width="18" height="10" fill="#3a1010"/><rect x="576" y="210" width="18" height="10" fill="#f3efe7"/><rect x="594" y="210" width="18" height="10" fill="#3a1010"/><rect x="612" y="210" width="18" height="10" fill="#f3efe7"/><rect x="630" y="210" width="18" height="10" fill="#3a1010"/><rect x="648" y="210" width="18" height="10" fill="#f3efe7"/><rect x="666" y="210" width="18" height="10" fill="#3a1010"/><rect x="684" y="210" width="18" height="10" fill="#f3efe7"/><rect x="702" y="210" width="18" height="10" fill="#3a1010"/><rect x="720" y="210" width="18" height="10" fill="#f3efe7"/><rect x="738" y="210" width="18" height="10" fill="#3a1010"/><rect x="756" y="210" width="18" height="10" fill="#f3efe7"/><rect x="774" y="210" width="18" height="10" fill="#3a1010"/><rect x="792" y="210" width="18" height="10" fill="#f3efe7"/><rect x="810" y="210" width="18" height="10" fill="#3a1010"/><rect x="828" y="210" width="18" height="10" fill="#f3efe7"/><rect x="846" y="210" width="18" height="10" fill="#3a1010"/><rect x="864" y="210" width="18" height="10" fill="#f3efe7"/><rect x="882" y="210" width="18" height="10" fill="#3a1010"/><rect x="900" y="210" width="18" height="10" fill="#f3efe7"/><rect x="918" y="210" width="18" height="10" fill="#3a1010"/><rect x="936" y="210" width="18" height="10" fill="#f3efe7"/><rect x="954" y="210" width="18" height="10" fill="#3a1010"/><rect x="972" y="210" width="18" height="10" fill="#f3efe7"/>
</g>
</svg>